{"accessors":[{"bufferView":0,"byteOffset":0,"componentType":5126,"count":50,"max":[0.0077821305599999998,0.010199999999999999,0.00465570313],"min":[-0.010199999999999999,0.0,-0.010199292923983644],"type":"VEC3"},{"bufferView":0,"byteOffset":600,"componentType":5126,"count":52,"max":[0.005,0.0077,0.004963544370490271],"min":[-0.005,0.0077,-0.0049635443704902719],"type":"VEC3"},{"bufferView":0,"byteOffset":1224,"componentType":5126,"count":52,"max":[0.005,0.0035,0.004963544370490271],"min":[-0.005,0.0035,-0.0049635443704902719],"type":"VEC3"},{"bufferView":0,"byteOffset":1848,"componentType":5126,"count":41,"max":[0.010199999999999999,0.010199999999999999,0.010199292923983644],"min":[-0.0077821305599999998,0.0,-1.18664561e-12],"type":"VEC3"},{"bufferView":0,"byteOffset":2340,"componentType":5126,"count":53,"max":[0.0092,0.0112,0.009132921641702099],"min":[-0.0092,0.0112,-0.00919601112],"type":"VEC3"},{"bufferView":0,"byteOffset":2976,"componentType":5126,"count":57,"max":[0.010199999999999999,0.0,0.010141014427976218],"min":[-0.010195178839011008,0.0,-0.010153718956190846],"type":"VEC3"},{"bufferView":0,"byteOffset":3660,"componentType":5126,"count":28,"max":[0.005,0.0112,0.0],"min":[-0.005,0.0077,-0.0049635443704902719],"type":"VEC3"},{"bufferView":0,"byteOffset":3996,"componentType":5126,"count":28,"max":[0.005,0.0035,4.8131779e-19],"min":[-0.005,0.0,-0.0049635443704902719],"type":"VEC3"},{"bufferView":0,"byteOffset":4332,"componentType":5126,"count":28,"max":[0.0040999999999999999,0.0077,1.00421038e-18],"min":[-0.0040999999999999999,0.0035,-0.004070106383802021],"type":"VEC3"},{"bufferView":0,"byteOffset":4668,"componentType":5126,"count":341,"max":[0.12663478331421958,0.018524410967590295,0.0005624653221072146],"min":[-0.00456282612,0.00016918371178867506,-0.1080217597886085],"type":"VEC3"},{"bufferView":0,"byteOffset":8760,"componentType":5126,"count":349,"max":[0.12673824555543027,0.018275556243470136,0.000143233483],"min":[-0.00473764247,0.00016918371178867506,-0.10818798501651933],"type":"VEC3"},{"bufferView":0,"byteOffset":12948,"componentType":5126,"count":4,"max":[0.125794656,0.00780876845,-0.105534493],"min":[0.12341538199999999,0.0071711165100000009,-0.10700364899999999],"type":"VEC3"},{"bufferView":0,"byteOffset":12996,"componentType":5126,"count":12,"max":[0.12341538199999999,0.008896386780000002,-0.10700364899999999],"min":[0.115855223,0.007635281810000001,-0.10819445922237361],"type":"VEC3"},{"bufferView":0,"byteOffset":13140,"componentType":5126,"count":3,"max":[0.115855223,0.00891200674,-0.10726152700000001],"min":[0.115429538,0.00885695342,-0.107458322],"type":"VEC3"},{"bufferView":0,"byteOffset":13176,"componentType":5126,"count":13,"max":[0.12673824555543027,0.00726264321,-0.10325212],"min":[0.125794656,0.0069102142100000009,-0.105534493],"type":"VEC3"},{"bufferView":0,"byteOffset":13332,"componentType":5126,"count":5,"max":[0.115867169,0.008940754399999999,-0.10716500999999999],"min":[0.115240562,0.008896386780000002,-0.107458322],"type":"VEC3"},{"bufferView":0,"byteOffset":13392,"componentType":5126,"count":27,"max":[0.12342543462002743,0.008942915957975317,-0.10665394],"min":[0.115855223,0.00780876845,-0.10819445922237361],"type":"VEC3"},{"bufferView":0,"byteOffset":13716,"componentType":5126,"count":12,"max":[0.12580503789114723,0.008199145500000002,-0.105256874],"min":[0.123291933,0.00726264321,-0.10700364899999999],"type":"VEC3"},{"bufferView":0,"byteOffset":13860,"componentType":5126,"count":35,"max":[0.12673600764270455,0.00755397859,-0.102710977],"min":[0.12570503700000003,0.006908663723172398,-0.105534493],"type":"VEC3"},{"bufferView":0,"byteOffset":14280,"componentType":5126,"count":341,"max":[0.00456282612,0.018524410967590295,0.1080217597886085],"min":[-0.12663478331421958,0.00016918371178867506,-0.0005624653221072146],"type":"VEC3"},{"bufferView":0,"byteOffset":18372,"componentType":5126,"count":349,"max":[0.00473764247,0.018275556243470136,0.10818798501651933],"min":[-0.12673824555543027,0.00016918371178867506,-0.000143233483],"type":"VEC3"},{"bufferView":0,"byteOffset":22560,"componentType":5126,"count":4,"max":[-0.12341538199999999,0.00780876845,0.10700364899999999],"min":[-0.125794656,0.0071711165100000009,0.105534493],"type":"VEC3"},{"bufferView":0,"byteOffset":22608,"componentType":5126,"count":12,"max":[-0.115855223,0.008896386780000002,0.10819445922237361],"min":[-0.12341538199999999,0.007635281810000001,0.10700364899999999],"type":"VEC3"},{"bufferView":0,"byteOffset":22752,"componentType":5126,"count":3,"max":[-0.115429538,0.00891200674,0.107458322],"min":[-0.115855223,0.00885695342,0.10726152700000001],"type":"VEC3"},{"bufferView":0,"byteOffset":22788,"componentType":5126,"count":13,"max":[-0.125794656,0.00726264321,0.105534493],"min":[-0.12673824555543027,0.0069102142100000009,0.10325212],"type":"VEC3"},{"bufferView":0,"byteOffset":22944,"componentType":5126,"count":5,"max":[-0.115240562,0.008940754399999999,0.107458322],"min":[-0.115867169,0.008896386780000002,0.10716500999999999],"type":"VEC3"},{"bufferView":0,"byteOffset":23004,"componentType":5126,"count":27,"max":[-0.115855223,0.008942915957975317,0.10819445922237361],"min":[-0.12342543462002743,0.00780876845,0.10665394],"type":"VEC3"},{"bufferView":0,"byteOffset":23328,"componentType":5126,"count":12,"max":[-0.123291933,0.008199145500000002,0.10700364899999999],"min":[-0.12580503789114723,0.00726264321,0.105256874],"type":"VEC3"},{"bufferView":0,"byteOffset":23472,"componentType":5126,"count":35,"max":[-0.12570503700000003,0.00755397859,0.105534493],"min":[-0.12673600764270455,0.006908663723172398,0.102710977],"type":"VEC3"},{"bufferView":0,"byteOffset":23892,"componentType":5126,"count":67,"max":[0.010199999999999999,0.0112,0.010148005692205574],"min":[-0.010199999999999999,0.010199999999999999,-1.2491397400000002e-18],"type":"VEC3"},{"bufferView":0,"byteOffset":24696,"componentType":5126,"count":17,"max":[0.00490763561,0.010199999999999999,0.010519641],"min":[0.00115901586,0.0069641322,0.008941762280000002],"type":"VEC3"},{"bufferView":0,"byteOffset":24900,"componentType":5126,"count":35,"max":[0.00133477669,0.011141371646495259,0.010596776040495545],"min":[-0.00924484133,0.00977102262,0.00465570313],"type":"VEC3"},{"bufferView":0,"byteOffset":25320,"componentType":5126,"count":40,"max":[0.00490763561,0.00697221226,0.010310073817516325],"min":[-0.00813499458,0.0,0.006592533802483644],"type":"VEC3"},{"bufferView":0,"byteOffset":25800,"componentType":5126,"count":24,"max":[-0.009061382982042663,0.010199999999999999,0.004999580500000001],"min":[-0.010271444024867009,0.00434784096,-0.000755003052926864],"type":"VEC3"},{"bufferView":0,"byteOffset":26088,"componentType":5126,"count":21,"max":[-0.0077821305599999998,0.000489511128,0.00681926898],"min":[-0.00949470006,0.0,0.004444329879999999],"type":"VEC3"},{"bufferView":0,"byteOffset":26340,"componentType":5126,"count":23,"max":[-0.00918084592,0.00447664789,0.0046934479],"min":[-0.0103241791,0.0,-0.000467709134],"type":"VEC3"},{"bufferView":0,"byteOffset":26616,"componentType":5126,"count":17,"max":[-0.00115901586,0.010199999999999999,-0.008941762280000002],"min":[-0.00490763561,0.0069641322,-0.010519641],"type":"VEC3"},{"bufferView":0,"byteOffset":26820,"componentType":5126,"count":35,"max":[0.00924484133,0.011141371646495259,-0.00465570313],"min":[-0.00133477669,0.00977102262,-0.010596776040495545],"type":"VEC3"},{"bufferView":0,"byteOffset":27240,"componentType":5126,"count":40,"max":[0.00813499458,0.00697221226,-0.006592533802483644],"min":[-0.00490763561,0.0,-0.010310073817516325],"type":"VEC3"},{"bufferView":0,"byteOffset":27720,"componentType":5126,"count":27,"max":[0.010271444024867009,0.010199999999999999,0.0007536039471231488],"min":[0.009061382982042663,0.00434784096,-0.004999580500000001],"type":"VEC3"},{"bufferView":0,"byteOffset":28044,"componentType":5126,"count":21,"max":[0.00949470006,0.000489511128,-0.004444329879999999],"min":[0.0077821305599999998,0.0,-0.00681926898],"type":"VEC3"},{"bufferView":0,"byteOffset":28296,"componentType":5126,"count":24,"max":[0.0103241791,0.00447664789,0.000467709134],"min":[0.00918084592,0.0,-0.0046934479],"type":"VEC3"},{"bufferView":0,"byteOffset":28584,"componentType":5126,"count":7,"max":[0.010199999999999999,0.010199999999999999,2.4982794700000005e-18],"min":[0.009075485020000001,0.00668643856,-0.00465570313],"type":"VEC3"},{"bufferView":0,"byteOffset":28668,"componentType":5126,"count":10,"max":[0.010199999999999999,0.00360803344,0.0],"min":[0.00918084592,0.0,-0.004444329879999999],"type":"VEC3"},{"bufferView":0,"byteOffset":28788,"componentType":5126,"count":28,"max":[0.005,0.0112,0.004963544370490271],"min":[-0.005,0.0077,-2.22044605e-18],"type":"VEC3"},{"bufferView":0,"byteOffset":29124,"componentType":5126,"count":28,"max":[0.005,0.0035,0.004963544370490271],"min":[-0.005,0.0,-1.9679758100000004e-18],"type":"VEC3"},{"bufferView":0,"byteOffset":29460,"componentType":5126,"count":28,"max":[0.0040999999999999999,0.0077,0.004070106383802022],"min":[-0.0040999999999999999,0.0035,-7.531577810000001e-19],"type":"VEC3"},{"bufferView":0,"byteOffset":29796,"componentType":5126,"count":70,"max":[0.010199999999999999,0.0112,2.4982794700000005e-18],"min":[-0.010199999999999999,0.010199999999999999,-0.010148005692205574],"type":"VEC3"},{"bufferView":1,"byteOffset":0,"componentType":5126,"count":50,"type":"VEC3"},{"bufferView":1,"byteOffset":600,"componentType":5126,"count":52,"type":"VEC3"},{"bufferView":1,"byteOffset":1224,"componentType":5126,"count":52,"type":"VEC3"},{"bufferView":1,"byteOffset":1848,"componentType":5126,"count":41,"type":"VEC3"},{"bufferView":1,"byteOffset":2340,"componentType":5126,"count":53,"type":"VEC3"},{"bufferView":1,"byteOffset":2976,"componentType":5126,"count":57,"type":"VEC3"},{"bufferView":1,"byteOffset":3660,"componentType":5126,"count":28,"type":"VEC3"},{"bufferView":1,"byteOffset":3996,"componentType":5126,"count":28,"type":"VEC3"},{"bufferView":1,"byteOffset":4332,"componentType":5126,"count":28,"type":"VEC3"},{"bufferView":1,"byteOffset":4668,"componentType":5126,"count":341,"type":"VEC3"},{"bufferView":1,"byteOffset":8760,"componentType":5126,"count":349,"type":"VEC3"},{"bufferView":1,"byteOffset":12948,"componentType":5126,"count":4,"type":"VEC3"},{"bufferView":1,"byteOffset":12996,"componentType":5126,"count":12,"type":"VEC3"},{"bufferView":1,"byteOffset":13140,"componentType":5126,"count":3,"type":"VEC3"},{"bufferView":1,"byteOffset":13176,"componentType":5126,"count":13,"type":"VEC3"},{"bufferView":1,"byteOffset":13332,"componentType":5126,"count":5,"type":"VEC3"},{"bufferView":1,"byteOffset":13392,"componentType":5126,"count":27,"type":"VEC3"},{"bufferView":1,"byteOffset":13716,"componentType":5126,"count":12,"type":"VEC3"},{"bufferView":1,"byteOffset":13860,"componentType":5126,"count":35,"type":"VEC3"},{"bufferView":1,"byteOffset":14280,"componentType":5126,"count":341,"type":"VEC3"},{"bufferView":1,"byteOffset":18372,"componentType":5126,"count":349,"type":"VEC3"},{"bufferView":1,"byteOffset":22560,"componentType":5126,"count":4,"type":"VEC3"},{"bufferView":1,"byteOffset":22608,"componentType":5126,"count":12,"type":"VEC3"},{"bufferView":1,"byteOffset":22752,"componentType":5126,"count":3,"type":"VEC3"},{"bufferView":1,"byteOffset":22788,"componentType":5126,"count":13,"type":"VEC3"},{"bufferView":1,"byteOffset":22944,"componentType":5126,"count":5,"type":"VEC3"},{"bufferView":1,"byteOffset":23004,"componentType":5126,"count":27,"type":"VEC3"},{"bufferView":1,"byteOffset":23328,"componentType":5126,"count":12,"type":"VEC3"},{"bufferView":1,"byteOffset":23472,"componentType":5126,"count":35,"type":"VEC3"},{"bufferView":1,"byteOffset":23892,"componentType":5126,"count":67,"type":"VEC3"},{"bufferView":1,"byteOffset":24696,"componentType":5126,"count":17,"type":"VEC3"},{"bufferView":1,"byteOffset":24900,"componentType":5126,"count":35,"type":"VEC3"},{"bufferView":1,"byteOffset":25320,"componentType":5126,"count":40,"type":"VEC3"},{"bufferView":1,"byteOffset":25800,"componentType":5126,"count":24,"type":"VEC3"},{"bufferView":1,"byteOffset":26088,"componentType":5126,"count":21,"type":"VEC3"},{"bufferView":1,"byteOffset":26340,"componentType":5126,"count":23,"type":"VEC3"},{"bufferView":1,"byteOffset":26616,"componentType":5126,"count":17,"type":"VEC3"},{"bufferView":1,"byteOffset":26820,"componentType":5126,"count":35,"type":"VEC3"},{"bufferView":1,"byteOffset":27240,"componentType":5126,"count":40,"type":"VEC3"},{"bufferView":1,"byteOffset":27720,"componentType":5126,"count":27,"type":"VEC3"},{"bufferView":1,"byteOffset":28044,"componentType":5126,"count":21,"type":"VEC3"},{"bufferView":1,"byteOffset":28296,"componentType":5126,"count":24,"type":"VEC3"},{"bufferView":1,"byteOffset":28584,"componentType":5126,"count":7,"type":"VEC3"},{"bufferView":1,"byteOffset":28668,"componentType":5126,"count":10,"type":"VEC3"},{"bufferView":1,"byteOffset":28788,"componentType":5126,"count":28,"type":"VEC3"},{"bufferView":1,"byteOffset":29124,"componentType":5126,"count":28,"type":"VEC3"},{"bufferView":1,"byteOffset":29460,"componentType":5126,"count":28,"type":"VEC3"},{"bufferView":1,"byteOffset":29796,"componentType":5126,"count":70,"type":"VEC3"},{"bufferView":2,"byteOffset":0,"componentType":5123,"count":144,"type":"SCALAR"},{"bufferView":2,"byteOffset":288,"componentType":5123,"count":156,"type":"SCALAR"},{"bufferView":2,"byteOffset":600,"componentType":5123,"count":156,"type":"SCALAR"},{"bufferView":2,"byteOffset":912,"componentType":5123,"count":117,"type":"SCALAR"},{"bufferView":2,"byteOffset":1148,"componentType":5123,"count":159,"type":"SCALAR"},{"bufferView":2,"byteOffset":1468,"componentType":5123,"count":171,"type":"SCALAR"},{"bufferView":2,"byteOffset":1812,"componentType":5123,"count":78,"type":"SCALAR"},{"bufferView":2,"byteOffset":1968,"componentType":5123,"count":78,"type":"SCALAR"},{"bufferView":2,"byteOffset":2124,"componentType":5123,"count":78,"type":"SCALAR"},{"bufferView":2,"byteOffset":2280,"componentType":5123,"count":1836,"type":"SCALAR"},{"bufferView":2,"byteOffset":5952,"componentType":5123,"count":1878,"type":"SCALAR"},{"bufferView":2,"byteOffset":9708,"componentType":5123,"count":6,"type":"SCALAR"},{"bufferView":2,"byteOffset":9720,"componentType":5123,"count":30,"type":"SCALAR"},{"bufferView":2,"byteOffset":9780,"componentType":5123,"count":3,"type":"SCALAR"},{"bufferView":2,"byteOffset":9788,"componentType":5123,"count":33,"type":"SCALAR"},{"bufferView":2,"byteOffset":9856,"componentType":5123,"count":12,"type":"SCALAR"},{"bufferView":2,"byteOffset":9880,"componentType":5123,"count":105,"type":"SCALAR"},{"bufferView":2,"byteOffset":10092,"componentType":5123,"count":30,"type":"SCALAR"},{"bufferView":2,"byteOffset":10152,"componentType":5123,"count":135,"type":"SCALAR"},{"bufferView":2,"byteOffset":10424,"componentType":5123,"count":1836,"type":"SCALAR"},{"bufferView":2,"byteOffset":14096,"componentType":5123,"count":1878,"type":"SCALAR"},{"bufferView":2,"byteOffset":17852,"componentType":5123,"count":6,"type":"SCALAR"},{"bufferView":2,"byteOffset":17864,"componentType":5123,"count":30,"type":"SCALAR"},{"bufferView":2,"byteOffset":17924,"componentType":5123,"count":3,"type":"SCALAR"},{"bufferView":2,"byteOffset":17932,"componentType":5123,"count":33,"type":"SCALAR"},{"bufferView":2,"byteOffset":18000,"componentType":5123,"count":12,"type":"SCALAR"},{"bufferView":2,"byteOffset":18024,"componentType":5123,"count":105,"type":"SCALAR"},{"bufferView":2,"byteOffset":18236,"componentType":5123,"count":30,"type":"SCALAR"},{"bufferView":2,"byteOffset":18296,"componentType":5123,"count":135,"type":"SCALAR"},{"bufferView":2,"byteOffset":18568,"componentType":5123,"count":258,"type":"SCALAR"},{"bufferView":2,"byteOffset":19084,"componentType":5123,"count":51,"type":"SCALAR"},{"bufferView":2,"byteOffset":19188,"componentType":5123,"count":120,"type":"SCALAR"},{"bufferView":2,"byteOffset":19428,"componentType":5123,"count":144,"type":"SCALAR"},{"bufferView":2,"byteOffset":19716,"componentType":5123,"count":66,"type":"SCALAR"},{"bufferView":2,"byteOffset":19848,"componentType":5123,"count":66,"type":"SCALAR"},{"bufferView":2,"byteOffset":19980,"componentType":5123,"count":69,"type":"SCALAR"},{"bufferView":2,"byteOffset":20120,"componentType":5123,"count":51,"type":"SCALAR"},{"bufferView":2,"byteOffset":20224,"componentType":5123,"count":120,"type":"SCALAR"},{"bufferView":2,"byteOffset":20464,"componentType":5123,"count":144,"type":"SCALAR"},{"bufferView":2,"byteOffset":20752,"componentType":5123,"count":78,"type":"SCALAR"},{"bufferView":2,"byteOffset":20908,"componentType":5123,"count":66,"type":"SCALAR"},{"bufferView":2,"byteOffset":21040,"componentType":5123,"count":72,"type":"SCALAR"},{"bufferView":2,"byteOffset":21184,"componentType":5123,"count":15,"type":"SCALAR"},{"bufferView":2,"byteOffset":21216,"componentType":5123,"count":24,"type":"SCALAR"},{"bufferView":2,"byteOffset":21264,"componentType":5123,"count":78,"type":"SCALAR"},{"bufferView":2,"byteOffset":21420,"componentType":5123,"count":78,"type":"SCALAR"},{"bufferView":2,"byteOffset":21576,"componentType":5123,"count":78,"type":"SCALAR"},{"bufferView":2,"byteOffset":21732,"componentType":5123,"count":273,"type":"SCALAR"}],"asset":{"generator":"Open CASCADE Technology 7.7 [dev.opencascade.org]","version":"2.0"},"bufferViews":[{"buffer":0,"byteLength":30636,"byteOffset":0,"byteStride":12,"target":34962},{"buffer":0,"byteLength":30636,"byteOffset":30636,"byteStride":12,"target":34962},{"buffer":0,"byteLength":22280,"byteOffset":61272,"target":34963}],"buffers":[{"byteLength":83552,"uri":"Propeller.bin"}],"materials":[{"name":"mat_0","pbrMetallicRoughness":{"baseColorFactor":[0.168269544839859,0.19120186567306519,0.21586069464683534,1.0]},"doubleSided":true}],"meshes":[{"name":"C:\\Users\\TIFACC~1\\AppData\\Local\\Temp\\propeller_6292_8967","primitives":[{"attributes":{"NORMAL":48,"POSITION":0},"indices":96,"material":0,"mode":4},{"attributes":{"NORMAL":49,"POSITION":1},"indices":97,"material":0,"mode":4},{"attributes":{"NORMAL":50,"POSITION":2},"indices":98,"material":0,"mode":4},{"attributes":{"NORMAL":51,"POSITION":3},"indices":99,"material":0,"mode":4},{"attributes":{"NORMAL":52,"POSITION":4},"indices":100,"material":0,"mode":4},{"attributes":{"NORMAL":53,"POSITION":5},"indices":101,"material":0,"mode":4},{"attributes":{"NORMAL":54,"POSITION":6},"indices":102,"material":0,"mode":4},{"attributes":{"NORMAL":55,"POSITION":7},"indices":103,"material":0,"mode":4},{"attributes":{"NORMAL":56,"POSITION":8},"indices":104,"material":0,"mode":4},{"attributes":{"NORMAL":57,"POSITION":9},"indices":105,"material":0,"mode":4},{"attributes":{"NORMAL":58,"POSITION":10},"indices":106,"material":0,"mode":4},{"attributes":{"NORMAL":59,"POSITION":11},"indices":107,"material":0,"mode":4},{"attributes":{"NORMAL":60,"POSITION":12},"indices":108,"material":0,"mode":4},{"attributes":{"NORMAL":61,"POSITION":13},"indices":109,"material":0,"mode":4},{"attributes":{"NORMAL":62,"POSITION":14},"indices":110,"material":0,"mode":4},{"attributes":{"NORMAL":63,"POSITION":15},"indices":111,"material":0,"mode":4},{"attributes":{"NORMAL":64,"POSITION":16},"indices":112,"material":0,"mode":4},{"attributes":{"NORMAL":65,"POSITION":17},"indices":113,"material":0,"mode":4},{"attributes":{"NORMAL":66,"POSITION":18},"indices":114,"material":0,"mode":4},{"attributes":{"NORMAL":67,"POSITION":19},"indices":115,"material":0,"mode":4},{"attributes":{"NORMAL":68,"POSITION":20},"indices":116,"material":0,"mode":4},{"attributes":{"NORMAL":69,"POSITION":21},"indices":117,"material":0,"mode":4},{"attributes":{"NORMAL":70,"POSITION":22},"indices":118,"material":0,"mode":4},{"attributes":{"NORMAL":71,"POSITION":23},"indices":119,"material":0,"mode":4},{"attributes":{"NORMAL":72,"POSITION":24},"indices":120,"material":0,"mode":4},{"attributes":{"NORMAL":73,"POSITION":25},"indices":121,"material":0,"mode":4},{"attributes":{"NORMAL":74,"POSITION":26},"indices":122,"material":0,"mode":4},{"attributes":{"NORMAL":75,"POSITION":27},"indices":123,"material":0,"mode":4},{"attributes":{"NORMAL":76,"POSITION":28},"indices":124,"material":0,"mode":4},{"attributes":{"NORMAL":77,"POSITION":29},"indices":125,"material":0,"mode":4},{"attributes":{"NORMAL":78,"POSITION":30},"indices":126,"material":0,"mode":4},{"attributes":{"NORMAL":79,"POSITION":31},"indices":127,"material":0,"mode":4},{"attributes":{"NORMAL":80,"POSITION":32},"indices":128,"material":0,"mode":4},{"attributes":{"NORMAL":81,"POSITION":33},"indices":129,"material":0,"mode":4},{"attributes":{"NORMAL":82,"POSITION":34},"indices":130,"material":0,"mode":4},{"attributes":{"NORMAL":83,"POSITION":35},"indices":131,"material":0,"mode":4},{"attributes":{"NORMAL":84,"POSITION":36},"indices":132,"material":0,"mode":4},{"attributes":{"NORMAL":85,"POSITION":37},"indices":133,"material":0,"mode":4},{"attributes":{"NORMAL":86,"POSITION":38},"indices":134,"material":0,"mode":4},{"attributes":{"NORMAL":87,"POSITION":39},"indices":135,"material":0,"mode":4},{"attributes":{"NORMAL":88,"POSITION":40},"indices":136,"material":0,"mode":4},{"attributes":{"NORMAL":89,"POSITION":41},"indices":137,"material":0,"mode":4},{"attributes":{"NORMAL":90,"POSITION":42},"indices":138,"material":0,"mode":4},{"attributes":{"NORMAL":91,"POSITION":43},"indices":139,"material":0,"mode":4},{"attributes":{"NORMAL":92,"POSITION":44},"indices":140,"material":0,"mode":4},{"attributes":{"NORMAL":93,"POSITION":45},"indices":141,"material":0,"mode":4},{"attributes":{"NORMAL":94,"POSITION":46},"indices":142,"material":0,"mode":4},{"attributes":{"NORMAL":95,"POSITION":47},"indices":143,"material":0,"mode":4}]}],"nodes":[{"mesh":0,"name":"C:\\Users\\TIFACC~1\\AppData\\Local\\Temp\\propeller_6292_8967"}],"scene":0,"scenes":[{"nodes":[0]}]}